<svg width="44" height="44" viewBox="0 0 44 44" fill="none" xmlns="http://www.w3.org/2000/svg">
<rect width="44" height="44" rx="12" fill="#2563EB"/>
<path d="M22.0254 34.5356C19.7145 34.5356 15.2405 32.1921 12.0449 28.9112C7.87722 24.6323 6.59097 19.3669 7.95446 15.1912C9.36738 10.8642 12.5562 9.62996 15.1127 9.62996C17.6692 9.62996 19.3714 10.2135 20.9927 11.6547C21.3762 11.9956 22.0382 12.8477 22.0382 12.8477C22.0382 12.8477 22.5687 12.0867 22.9527 11.6547C23.6345 10.8878 26.1016 8.87779 30.0684 9.62998C34.7492 10.5176 36.5903 14.549 36.5449 17.4921C36.4995 20.4351 34.6701 24.693 31.2188 26.6956C27.7675 28.6982 24.784 28.5636 22.0898 27.8034C19.7721 27.1494 17.3284 25.2469 16.0501 22.6477" stroke="white" stroke-width="2.50712"/>
</svg>
