<?xml version="1.0" encoding="UTF-8" standalone="no"?>
<!-- Created with Inkscape (http://www.inkscape.org/) -->

<svg
   width="250.82498mm"
   height="39.615818mm"
   viewBox="0 0 250.82498 39.615818"
   version="1.1"
   id="svg1"
   xml:space="preserve"
   inkscape:version="1.3.2 (091e20e, 2023-11-25)"
   sodipodi:docname="Gosuslugi.svg"
   xmlns:inkscape="http://www.inkscape.org/namespaces/inkscape"
   xmlns:sodipodi="http://sodipodi.sourceforge.net/DTD/sodipodi-0.dtd"
   xmlns="http://www.w3.org/2000/svg"
   xmlns:svg="http://www.w3.org/2000/svg"><sodipodi:namedview
     id="namedview1"
     pagecolor="#505050"
     bordercolor="#ffffff"
     borderopacity="1"
     inkscape:showpageshadow="0"
     inkscape:pageopacity="0"
     inkscape:pagecheckerboard="1"
     inkscape:deskcolor="#505050"
     inkscape:document-units="mm"
     inkscape:zoom="1.3945149"
     inkscape:cx="473.99997"
     inkscape:cy="74.936454"
     inkscape:window-width="1440"
     inkscape:window-height="900"
     inkscape:window-x="0"
     inkscape:window-y="0"
     inkscape:window-maximized="0"
     inkscape:current-layer="layer1" /><defs
     id="defs1" /><g
     inkscape:label="Логотип"
     inkscape:groupmode="layer"
     id="layer1"
     transform="translate(20.329872,-179.61702)"><g
       id="g1"
       inkscape:label="Части"><path
         id="path1"
         style="fill:#2864b8;fill-opacity:1"
         d="m 48.596153,179.80886 c -1.979486,-0.0529 -3.89902,0.0206 -5.037935,0.23926 -5.073659,0.97426 -8.186064,4.02283 -9.31416,9.12348 -0.554061,2.50514 -0.557838,8.3898 -0.0067,10.87892 1.144964,5.1712 4.063241,8.18616 8.948291,9.24543 2.0142,0.43675 6.245899,0.50549 8.848039,0.14366 2.26761,-0.31533 5.387706,-1.04599 5.543847,-1.29863 0.06322,-0.1023 -0.375012,-1.52808 -0.973584,-3.16828 -1.051915,-2.8824 -1.111143,-2.97713 -1.770951,-2.82308 -5.490266,1.28182 -9.42704,1.23955 -11.315072,-0.12144 -1.584544,-1.14221 -2.349266,-4.25895 -2.135787,-8.7049 0.262425,-5.46526 1.759376,-6.99993 6.815088,-6.98613 2.183238,0.006 3.178118,0.15081 5.347994,0.77928 0.35651,0.10325 0.770497,-0.5011 1.93735,-2.82774 0.902102,-1.79874 1.389077,-3.05406 1.241268,-3.20187 -0.133732,-0.13373 -1.362713,-0.47553 -2.7311,-0.75964 -1.377503,-0.286 -3.417083,-0.46537 -5.39657,-0.51832 z m -33.12976,0.003 c -7.7503638,0.007 -11.4123516,2.44865 -12.9640669,8.64599 -0.340659,1.36054 -0.4482062,2.90642 -0.4382162,6.3009 0.01931,6.5625 0.9026619,9.4618 3.6566244,12.00031 1.6833483,1.55165 3.6201061,2.30841 7.1546017,2.79569 1.290557,0.17792 5.705532,-0.0607 7.276042,-0.39326 5.99268,-1.26914 8.712646,-5.80692 8.712646,-14.53503 0,-5.20608 -1.0527,-9.07312 -3.10782,-11.41377 -1.830334,-2.08464 -5.824182,-3.40483 -10.289811,-3.40083 z m -35.796265,0.79169 v 13.97899 c 0,7.68834 0.08293,14.0614 0.183968,14.16244 0.101041,0.10124 1.738152,0.15047 3.638021,0.11007 l 3.454053,-0.0734 0.06925,-10.77609 0.06873,-10.7766 5.3324908,-0.0713 5.332491,-0.0718 1.2500529,-3.04271 c 0.68770098,-1.67348 1.19713464,-3.13201 1.1317139,-3.24115 -0.0654207,-0.10914 -4.6958523,-0.19843 -10.2898116,-0.19843 z m 35.691878,5.55728 c 3.398818,0.001 4.250241,0.38675 5.127853,2.3213 0.478377,1.05451 0.583046,1.86944 0.669726,5.21829 0.149651,5.78147 -0.279669,7.56927 -2.152323,8.96741 -0.574751,0.42912 -1.192251,0.54695 -3.158464,0.60255 -2.846989,0.0805 -3.796476,-0.15234 -4.733561,-1.1622 -1.073859,-1.15726 -1.339756,-2.3144 -1.4763956,-6.42338 -0.1855333,-5.5793 0.3105291,-7.76979 2.0189986,-8.91987 0.796461,-0.5362 1.21904,-0.60498 3.704166,-0.6041 z"
         sodipodi:nodetypes="sssssssscsssssssscsssscssccsccccccccsscsssscsscs" /><path
         style="fill:#ef2854;fill-opacity:1"
         d="m 65.84607,219.06638 c -0.09153,-0.0915 0.981898,-2.38349 2.385406,-5.09323 l 2.551833,-4.9268 -5.075336,-13.85886 c -2.791435,-7.62237 -5.075336,-14.02197 -5.075336,-14.22135 0,-0.28947 0.737382,-0.36249 3.66035,-0.36249 h 3.660349 l 3.13583,8.6651 c 1.724706,4.7658 3.282898,9.02229 3.462648,9.45885 l 0.326818,0.79375 0.511479,-1.19063 c 0.868871,-2.02256 3.4849,-9.77456 4.651123,-13.78252 l 1.109277,-3.81227 3.544321,-0.0741 c 1.949378,-0.0408 3.648808,0.0304 3.776528,0.15806 0.45278,0.45279 -4.579208,14.95343 -8.618901,24.83704 -1.910009,4.67307 -5.191579,11.93394 -5.842696,12.92767 -0.417996,0.63794 -0.484879,0.64824 -4.211003,0.64824 -2.082444,0 -3.861154,-0.0749 -3.95269,-0.16643 z m 88.09004,-0.0369 c -0.0739,-0.11949 0.98875,-2.33058 2.36134,-4.91354 1.37258,-2.58296 2.4956,-4.84695 2.4956,-5.0311 0,-0.18414 -2.2618,-6.51892 -5.02622,-14.07727 -2.76443,-7.55835 -5.02662,-13.89128 -5.02709,-14.07318 -6.4e-4,-0.24873 0.90895,-0.33073 3.66853,-0.33073 h 3.66939 l 3.40821,9.39156 c 1.87453,5.16536 3.46828,9.39208 3.54168,9.39271 0.2596,0.002 3.56304,-9.45536 4.89767,-14.02178 l 1.35328,-4.63021 3.65586,-0.0738 3.65587,-0.0738 -0.16779,1.04926 c -0.77818,4.86653 -10.86529,31.03681 -14.09787,36.57593 l -0.51769,0.88708 -3.86825,0.0731 c -2.12753,0.0402 -3.92867,-0.0247 -4.00252,-0.14415 z M 102.4368,209.5364 c -5.22047,-0.78406 -7.91778,-2.26043 -9.70667,-5.31295 -1.63918,-2.79704 -2.42339,-7.76342 -1.95724,-12.39508 0.78758,-7.82543 4.05188,-11.26949 11.46865,-12.10021 4.1158,-0.46099 11.58662,0.59561 11.56224,1.63525 -0.0194,0.82795 -2.75183,5.7246 -3.16489,5.67167 -0.21828,-0.028 -1.40891,-0.24297 -2.64584,-0.47779 -3.7823,-0.71804 -7.20214,-0.0582 -8.39487,1.61977 -0.87172,1.22635 -1.12708,2.65975 -1.12865,6.33533 -0.002,5.32637 0.96348,7.5603 3.58281,8.2875 1.60013,0.44425 5.0038,0.34322 7.78771,-0.23117 1.37965,-0.28465 2.58202,-0.43191 2.67194,-0.32725 0.0899,0.10466 0.59173,1.40151 1.11512,2.88187 0.77969,2.20528 0.88781,2.74454 0.59843,2.9847 -1.02343,0.84938 -9.11557,1.82984 -11.78874,1.42836 z m 112.05103,-0.0769 c -3.41491,-0.55656 -5.39624,-1.63204 -6.7377,-3.65728 -1.81465,-2.73963 -2.1642,-5.546 -2.06756,-16.59958 l 0.074,-8.46667 h 3.57188 3.57187 l 0.13229,9.39271 c 0.12731,9.0396 0.15417,9.43362 0.71441,10.48078 0.80984,1.51373 2.00313,2.03178 4.70052,2.04068 1.16913,0.004 2.69125,-0.0807 3.38247,-0.18802 l 1.25677,-0.19503 v -10.8317 -10.83171 h 3.70417 3.70416 v 13.21986 c 0,12.32085 -0.0315,13.23648 -0.46302,13.46423 -0.77161,0.40726 -4.29425,1.3202 -6.68934,1.73364 -2.91008,0.50234 -7.16813,0.713 -8.85493,0.43809 z m -96.70519,-0.92864 c 0,-0.0653 0.4685,-1.9405 1.04112,-4.16719 1.15916,-4.50749 1.92199,-8.22695 2.53965,-12.38291 0.41631,-2.8012 1.16681,-9.67898 1.1765,-10.78176 l 0.005,-0.59532 h 10.58333 10.58332 v 14.02292 14.02291 h -3.70416 -3.70416 v -10.85582 -10.85582 l -3.36476,0.074 -3.36477,0.074 -0.33585,3.04271 c -0.56578,5.12569 -1.91912,11.9028 -3.42109,17.13177 l -0.399,1.38906 h -3.81768 c -2.09973,0 -3.81768,-0.0534 -3.81768,-0.11865 z m 63.49999,-13.90426 v -14.02292 h 10.18645 c 8.96946,0 10.18646,0.0484 10.18646,0.40505 0,0.22277 -0.54787,1.71105 -1.21752,3.30728 l -1.21752,2.90225 h -5.26477 -5.26477 v 10.71563 10.71562 h -3.70417 -3.70416 z"
         id="path1-0-2"
         sodipodi:nodetypes="cscssscsscsscccssscccssssscscscccsscsccssssscsscssssssssscccsscccccccssssscssccccccccccccsscsccccssscccccccc"
         inkscape:label="Гос-" /></g></g></svg>
